<svg width="21" height="20" viewBox="0 0 21 20" fill="none" xmlns="http://www.w3.org/2000/svg">
<path d="M10.9817 0C9.66847 0 8.36811 0.258658 7.15485 0.761205C5.9416 1.26375 4.83921 2.00035 3.91062 2.92893C2.03526 4.8043 0.981689 7.34784 0.981689 10C0.981689 14.42 3.85169 18.17 7.82169 19.5C8.32169 19.58 8.48169 19.27 8.48169 19V17.31C5.71169 17.91 5.12169 15.97 5.12169 15.97C4.66169 14.81 4.01169 14.5 4.01169 14.5C3.10169 13.88 4.08169 13.9 4.08169 13.9C5.08169 13.97 5.61169 14.93 5.61169 14.93C6.48169 16.45 7.95169 16 8.52169 15.76C8.61169 15.11 8.87169 14.67 9.15169 14.42C6.93169 14.17 4.60169 13.31 4.60169 9.5C4.60169 8.39 4.98169 7.5 5.63169 6.79C5.53169 6.54 5.18169 5.5 5.73169 4.15C5.73169 4.15 6.57169 3.88 8.48169 5.17C9.27169 4.95 10.1317 4.84 10.9817 4.84C11.8317 4.84 12.6917 4.95 13.4817 5.17C15.3917 3.88 16.2317 4.15 16.2317 4.15C16.7817 5.5 16.4317 6.54 16.3317 6.79C16.9817 7.5 17.3617 8.39 17.3617 9.5C17.3617 13.32 15.0217 14.16 12.7917 14.41C13.1517 14.72 13.4817 15.33 13.4817 16.26V19C13.4817 19.27 13.6417 19.59 14.1517 19.5C18.1217 18.16 20.9817 14.42 20.9817 10C20.9817 8.68678 20.723 7.38642 20.2205 6.17317C19.7179 4.95991 18.9813 3.85752 18.0528 2.92893C17.1242 2.00035 16.0218 1.26375 14.8085 0.761205C13.5953 0.258658 12.2949 0 10.9817 0Z" fill="#cdced5"/>
</svg>
