<svg width="19" height="18" viewBox="0 0 19 18" fill="none" xmlns="http://www.w3.org/2000/svg">
<path d="M16.9817 0C17.5121 0 18.0208 0.210714 18.3959 0.585786C18.771 0.960859 18.9817 1.46957 18.9817 2V16C18.9817 16.5304 18.771 17.0391 18.3959 17.4142C18.0208 17.7893 17.5121 18 16.9817 18H2.98169C2.45126 18 1.94255 17.7893 1.56748 17.4142C1.1924 17.0391 0.981689 16.5304 0.981689 16V2C0.981689 1.46957 1.1924 0.960859 1.56748 0.585786C1.94255 0.210714 2.45126 0 2.98169 0H16.9817ZM16.4817 15.5V10.2C16.4817 9.33539 16.1382 8.5062 15.5269 7.89483C14.9155 7.28346 14.0863 6.94 13.2217 6.94C12.3717 6.94 11.3817 7.46 10.9017 8.24V7.13H8.11169V15.5H10.9017V10.57C10.9017 9.8 11.5217 9.17 12.2917 9.17C12.663 9.17 13.0191 9.3175 13.2816 9.58005C13.5442 9.8426 13.6917 10.1987 13.6917 10.57V15.5H16.4817ZM4.86169 5.56C5.30725 5.56 5.73457 5.383 6.04963 5.06794C6.36469 4.75288 6.54169 4.32556 6.54169 3.88C6.54169 2.95 5.79169 2.19 4.86169 2.19C4.41347 2.19 3.98362 2.36805 3.66668 2.68499C3.34974 3.00193 3.17169 3.43178 3.17169 3.88C3.17169 4.81 3.93169 5.56 4.86169 5.56ZM6.25169 15.5V7.13H3.48169V15.5H6.25169Z" fill="#cdced5"/>
</svg>
